<svg xmlns="http://www.w3.org/2000/svg" width="900" height="720" viewBox="0 0 900 720">
<rect width="100%" height="100%" fill="white"/>
<text x="450.0" y="24" text-anchor="middle" font-family="sans-serif" font-size="16">NASA Archive ECEM/ECEE usable-battery candidates - top 25</text>
<text x="97" y="658.3" text-anchor="end" font-family="sans-serif" font-size="9">K2-3 d</text>
<rect x="105" y="642.2" width="525.5" height="20.8" fill="rgb(67,131,220)"/>
<text x="634.5" y="658.3" font-family="sans-serif" font-size="9">0.691</text>
<text x="97" y="633.5" text-anchor="end" font-family="sans-serif" font-size="9">Kepler-22 b</text>
<rect x="105" y="617.4" width="525.5" height="20.8" fill="rgb(67,131,220)"/>
<text x="634.5" y="633.5" font-family="sans-serif" font-size="9">0.691</text>
<text x="97" y="608.7" text-anchor="end" font-family="sans-serif" font-size="9">Kepler-1652 b</text>
<rect x="105" y="592.6" width="527.5" height="20.8" fill="rgb(67,130,220)"/>
<text x="636.5" y="608.7" font-family="sans-serif" font-size="9">0.694</text>
<text x="97" y="583.9" text-anchor="end" font-family="sans-serif" font-size="9">Kepler-438 b</text>
<rect x="105" y="567.8" width="527.8" height="20.8" fill="rgb(67,130,220)"/>
<text x="636.8" y="583.9" font-family="sans-serif" font-size="9">0.694</text>
<text x="97" y="559.1" text-anchor="end" font-family="sans-serif" font-size="9">Kepler-174 d</text>
<rect x="105" y="543.0" width="535.7" height="20.8" fill="rgb(66,129,220)"/>
<text x="644.7" y="559.1" font-family="sans-serif" font-size="9">0.705</text>
<text x="97" y="534.3" text-anchor="end" font-family="sans-serif" font-size="9">Kepler-69 c</text>
<rect x="105" y="518.2" width="537.2" height="20.8" fill="rgb(66,128,220)"/>
<text x="646.2" y="534.3" font-family="sans-serif" font-size="9">0.707</text>
<text x="97" y="509.5" text-anchor="end" font-family="sans-serif" font-size="9">Kepler-1229 b</text>
<rect x="105" y="493.4" width="539.5" height="20.8" fill="rgb(66,128,220)"/>
<text x="648.5" y="509.5" font-family="sans-serif" font-size="9">0.710</text>
<text x="97" y="484.7" text-anchor="end" font-family="sans-serif" font-size="9">TOI-2094 b</text>
<rect x="105" y="468.6" width="548.2" height="20.8" fill="rgb(66,126,219)"/>
<text x="657.2" y="484.7" font-family="sans-serif" font-size="9">0.721</text>
<text x="97" y="459.9" text-anchor="end" font-family="sans-serif" font-size="9">Kepler-439 b</text>
<rect x="105" y="443.8" width="548.5" height="20.8" fill="rgb(66,126,219)"/>
<text x="657.5" y="459.9" font-family="sans-serif" font-size="9">0.722</text>
<text x="97" y="435.1" text-anchor="end" font-family="sans-serif" font-size="9">Kepler-296 e</text>
<rect x="105" y="419.0" width="549.1" height="20.8" fill="rgb(66,126,219)"/>
<text x="658.1" y="435.1" font-family="sans-serif" font-size="9">0.723</text>
<text x="97" y="410.3" text-anchor="end" font-family="sans-serif" font-size="9">Kepler-1040 b</text>
<rect x="105" y="394.2" width="565.9" height="20.8" fill="rgb(65,123,218)"/>
<text x="674.9" y="410.3" font-family="sans-serif" font-size="9">0.745</text>
<text x="97" y="385.5" text-anchor="end" font-family="sans-serif" font-size="9">TOI-904 c</text>
<rect x="105" y="369.4" width="566.6" height="20.8" fill="rgb(65,123,218)"/>
<text x="675.6" y="385.5" font-family="sans-serif" font-size="9">0.746</text>
<text x="97" y="360.7" text-anchor="end" font-family="sans-serif" font-size="9">Kepler-440 b</text>
<rect x="105" y="344.6" width="567.9" height="20.8" fill="rgb(65,122,218)"/>
<text x="676.9" y="360.7" font-family="sans-serif" font-size="9">0.747</text>
<text x="97" y="335.9" text-anchor="end" font-family="sans-serif" font-size="9">Kepler-1455 b</text>
<rect x="105" y="319.8" width="575.4" height="20.8" fill="rgb(64,121,218)"/>
<text x="684.4" y="335.9" font-family="sans-serif" font-size="9">0.757</text>
<text x="97" y="311.1" text-anchor="end" font-family="sans-serif" font-size="9">Kepler-283 c</text>
<rect x="105" y="295.0" width="592.1" height="20.8" fill="rgb(63,118,217)"/>
<text x="701.1" y="311.1" font-family="sans-serif" font-size="9">0.779</text>
<text x="97" y="286.3" text-anchor="end" font-family="sans-serif" font-size="9">Kepler-1544 b</text>
<rect x="105" y="270.2" width="592.8" height="20.8" fill="rgb(63,117,217)"/>
<text x="701.8" y="286.3" font-family="sans-serif" font-size="9">0.780</text>
<text x="97" y="261.5" text-anchor="end" font-family="sans-serif" font-size="9">Kepler-1410 b</text>
<rect x="105" y="245.4" width="602.5" height="20.8" fill="rgb(63,116,217)"/>
<text x="711.5" y="261.5" font-family="sans-serif" font-size="9">0.793</text>
<text x="97" y="236.7" text-anchor="end" font-family="sans-serif" font-size="9">Kepler-1638 b</text>
<rect x="105" y="220.6" width="603.6" height="20.8" fill="rgb(63,115,217)"/>
<text x="712.6" y="236.7" font-family="sans-serif" font-size="9">0.794</text>
<text x="97" y="211.9" text-anchor="end" font-family="sans-serif" font-size="9">Kepler-1090 b</text>
<rect x="105" y="195.8" width="609.2" height="20.8" fill="rgb(62,114,216)"/>
<text x="718.2" y="211.9" font-family="sans-serif" font-size="9">0.802</text>
<text x="97" y="187.1" text-anchor="end" font-family="sans-serif" font-size="9">Kepler-442 b</text>
<rect x="105" y="171.0" width="609.3" height="20.8" fill="rgb(62,114,216)"/>
<text x="718.3" y="187.1" font-family="sans-serif" font-size="9">0.802</text>
<text x="97" y="162.3" text-anchor="end" font-family="sans-serif" font-size="9">Kepler-61 b</text>
<rect x="105" y="146.2" width="609.3" height="20.8" fill="rgb(62,114,216)"/>
<text x="718.3" y="162.3" font-family="sans-serif" font-size="9">0.802</text>
<text x="97" y="137.5" text-anchor="end" font-family="sans-serif" font-size="9">Kepler-1701 b</text>
<rect x="105" y="121.4" width="615.9" height="20.8" fill="rgb(62,113,216)"/>
<text x="724.9" y="137.5" font-family="sans-serif" font-size="9">0.810</text>
<text x="97" y="112.7" text-anchor="end" font-family="sans-serif" font-size="9">Kepler-1653 b</text>
<rect x="105" y="96.6" width="629.9" height="20.8" fill="rgb(61,110,215)"/>
<text x="738.9" y="112.7" font-family="sans-serif" font-size="9">0.829</text>
<text x="97" y="87.9" text-anchor="end" font-family="sans-serif" font-size="9">Kepler-705 b</text>
<rect x="105" y="71.8" width="632.5" height="20.8" fill="rgb(61,110,215)"/>
<text x="741.5" y="87.9" font-family="sans-serif" font-size="9">0.832</text>
<text x="97" y="63.1" text-anchor="end" font-family="sans-serif" font-size="9">Kepler-1606 b</text>
<rect x="105" y="47.0" width="643.9" height="20.8" fill="rgb(61,107,215)"/>
<text x="752.9" y="63.1" font-family="sans-serif" font-size="9">0.847</text>
<line x1="105" y1="665" x2="865" y2="665" stroke="black"/>
<text x="485.0" y="703" text-anchor="middle" font-family="sans-serif" font-size="12">Battery coherence usable score</text>
</svg>